<svg xmlns="http://www.w3.org/2000/svg" viewBox="0 0 298 298"><g id="Layer_2" data-name="Layer 2"><g id="Layer_1-2" data-name="Layer 1"><path d="M149,0A149,149,0,1,0,298,149,149,149,0,0,0,149,0ZM111.49,239a64.73,64.73,0,0,1-19.14-2.93l-20.66,12.4a3.53,3.53,0,0,1-1.87.53A3.86,3.86,0,0,1,67,247.69a5.71,5.71,0,0,1-1-5.53l5.66-17A59.27,59.27,0,0,1,49,179c0-33.1,28-60,62.5-60S174,145.91,174,179,146,239,111.49,239Zm120.36-37.24a5.74,5.74,0,0,1-.87,5.87,3.81,3.81,0,0,1-2.86,1.37,3.74,3.74,0,0,1-2.07-.66L204,193.22a71.54,71.54,0,0,1-18.44,5,3.78,3.78,0,0,1-3.58-1.64,5.75,5.75,0,0,1-.95-4.46,68.67,68.67,0,0,0,1.3-13.19c0-38.6-31.77-70-70.83-70a5.22,5.22,0,0,1-4.07-2c-.8-1.33-1.61-3-1.16-4.55,9.31-32,37.36-53.42,69.81-53.42C216.29,49,249,82.63,249,124a75.21,75.21,0,0,1-25.72,57.08Z"/></g></g></svg>