<svg xmlns="http://www.w3.org/2000/svg" viewBox="0 0 298 298"><g id="Layer_2" data-name="Layer 2"><g id="Layer_1-2" data-name="Layer 1"><polygon points="66.19 134.6 66.19 134.61 66.19 163.4 87.73 149 66.19 134.6"/><polygon points="224.89 118.53 157.59 73.66 157.59 113.73 194.87 138.62 224.89 118.53"/><polygon points="73.11 179.47 140.41 224.34 140.41 184.27 103.13 159.38 73.11 179.47"/><polygon points="140.41 113.73 140.41 73.66 73.11 118.53 103.13 138.62 140.41 113.73"/><polygon points="231.82 163.39 231.82 134.59 210.28 148.99 231.82 163.39"/><polygon points="149 128.68 118.64 148.99 149 169.31 179.36 148.99 149 128.68"/><path d="M149,0A149,149,0,1,0,298,149,149,149,0,0,0,149,0ZM249,179.46a8.74,8.74,0,0,1-3.79,7.14l-91.41,61a8.68,8.68,0,0,1-9.6,0l-91.41-61A8.74,8.74,0,0,1,49,179.46V118.53a8.72,8.72,0,0,1,3.79-7.14L144.2,50.44a8.72,8.72,0,0,1,9.6,0l91.41,61a8.72,8.72,0,0,1,3.79,7.14Z"/><polygon points="157.59 184.27 157.59 224.34 224.89 179.47 194.87 159.38 157.59 184.27"/></g></g></svg>