<svg xmlns="http://www.w3.org/2000/svg" viewBox="0 0 298 298">
	<g id="Layer_2" data-name="Layer 2">
		<g id="Layer_1-2" data-name="Layer 1">
			<path class="cls-1" d="M149,0C66.68,0,0,68.41,0,152.78c0,67.52,42.69,124.77,101.88,145,7.45,1.43,10.18-3.29,10.18-7.35,0-3.63-.12-13.24-.19-26-41.44,9.21-50.18-20.49-50.18-20.49-6.78-17.64-16.58-22.35-16.58-22.35-13.5-9.47,1-9.28,1-9.28C61.11,213.35,69,228,69,228c13.29,23.36,34.88,16.61,43.4,12.71,1.34-9.88,5.18-16.61,9.44-20.43-33.09-3.82-67.87-17-67.87-75.5,0-16.67,5.77-30.3,15.33-41-1.67-3.86-6.7-19.4,1.31-40.44,0,0,12.48-4.09,41,15.67a137,137,0,0,1,74.5,0c28.31-19.76,40.79-15.67,40.79-15.67,8,21,3,36.58,1.49,40.44,9.5,10.69,15.27,24.32,15.27,41,0,58.7-34.83,71.61-68,75.37,5.22,4.59,10.06,13.95,10.06,28.27,0,20.45-.19,36.87-.19,41.84,0,4,2.61,8.78,10.25,7.25C255.35,277.49,298,220.19,298,152.78,298,68.41,231.29,0,149,0Z"/>
		</g>
	</g>
</svg>