<svg xmlns="http://www.w3.org/2000/svg" viewBox="0 0 298 298">
	<g id="Layer_2" data-name="Layer 2">
		<g id="Layer_1-2" data-name="Layer 1">
			<path d="M149,0A149,149,0,1,0,298,149,149,149,0,0,0,149,0Zm68,116.17c.07,1.47.1,2.94.1,4.42,0,45.2-34.4,97.31-97.31,97.31h0A96.83,96.83,0,0,1,67.4,202.54a71,71,0,0,0,8.16.47A68.61,68.61,0,0,0,118,188.37a34.23,34.23,0,0,1-31.95-23.75,33.92,33.92,0,0,0,6.42.62,34.33,34.33,0,0,0,9-1.21A34.2,34.2,0,0,1,74.1,130.51v-.44a34.09,34.09,0,0,0,15.49,4.28A34.23,34.23,0,0,1,79,88.69a97.12,97.12,0,0,0,70.5,35.73,34.22,34.22,0,0,1,58.27-31.19,68.31,68.31,0,0,0,21.72-8.3,34.35,34.35,0,0,1-15,18.92,68.11,68.11,0,0,0,19.64-5.39A69.4,69.4,0,0,1,217,116.17Z"/>
		</g>
	</g>
</svg>